Coordinates
version=1
nRows=14
nColumns=40
inDegrees=yes

Units are S.I. units (second, meters, Newtons, ...)
If the header above contains a line with 'inDegrees', this indicates whether rotational values are in degrees (yes) or radians (no).

endheader
time	pelvis_tilt	pelvis_list	pelvis_rotation	pelvis_tx	pelvis_ty	pelvis_tz	hip_flexion_r	hip_adduction_r	hip_rotation_r	knee_angle_r	knee_angle_r_beta	ankle_angle_r	subtalar_angle_r	mtp_angle_r	hip_flexion_l	hip_adduction_l	hip_rotation_l	knee_angle_l	knee_angle_l_beta	ankle_angle_l	subtalar_angle_l	mtp_angle_l	lumbar_extension	lumbar_bending	lumbar_rotation	arm_flex_r	arm_add_r	arm_rot_r	elbow_flex_r	pro_sup_r	wrist_flex_r	wrist_dev_r	arm_flex_l	arm_add_l	arm_rot_l	elbow_flex_l	pro_sup_l	wrist_flex_l	wrist_dev_l
      3.45000000	     -3.84068048	     -8.04226626	      0.98591725	     -0.31876841	      0.80607834	     -0.97597016	     55.91292140	      1.45356963	     -4.22777152	     15.03424390	      0.26239706	    -17.15561157	      0.00000000	      0.00000000	     49.51286824	     -6.99924174	      0.53359238	     78.33091863	      1.36713244	     22.39264397	      0.00000000	      0.00000000	    -11.42699910	      1.81361820	      7.17773764	     89.92656337	    -14.44782488	     17.83433963	     34.41998420	     78.87179186	      0.00000000	      0.00000000	     89.93012298	    -27.37989294	     21.90820415	     39.36373835	     84.15995068	      0.00000000	      0.00000000
      3.45500000	     -4.08681480	     -8.26584584	      1.13395058	     -0.31936359	      0.80470036	     -0.97571160	     56.17283873	      1.48439233	     -4.48586807	     14.90742386	      0.26018363	    -17.27509164	      0.00000000	      0.00000000	     50.06143003	     -7.02976636	      0.90418603	     78.60334745	      1.37188722	     22.34828481	      0.00000000	      0.00000000	    -11.26534604	      2.03135516	      7.09109141	     89.92748177	    -14.47816472	     17.63535619	     34.46804725	     79.50500357	      0.00000000	      0.00000000	     89.93062745	    -27.27653095	     21.77926727	     39.39775129	     84.11894728	      0.00000000	      0.00000000
      3.46000000	     -3.95529006	     -7.97523431	      0.98540662	     -0.31926833	      0.80407446	     -0.97588595	     56.02645866	      1.42153690	     -4.11675780	     14.79659647	      0.25824933	    -17.35039711	      0.00000000	      0.00000000	     49.88194743	     -6.89130895	      0.57137832	     78.70575377	      1.37367454	     22.51066116	      0.00000000	      0.00000000	    -11.48646986	      1.70724545	      7.13947285	     89.92672117	    -14.47661532	     18.51057285	     34.66586213	     72.26048968	      0.00000000	      0.00000000	     89.93042260	    -27.47829507	     22.89893409	     39.76162568	     76.17077122	      0.00000000	      0.00000000
      3.46500000	     -3.85857613	     -7.86615021	      0.84276988	     -0.31911899	      0.80347790	     -0.97579429	     55.99804362	      1.46529968	     -4.13876500	     14.88979712	      0.25987598	    -17.22103477	      0.00000000	      0.00000000	     49.80220161	     -6.93758476	      0.36152428	     78.86542004	      1.37646125	     22.55585701	      0.00000000	      0.00000000	    -11.64100783	      1.56732048	      7.27313434	     89.92694293	    -14.48121424	     17.59362524	     34.47029870	     79.15480228	      0.00000000	      0.00000000	     89.93049226	    -27.34609281	     21.74598325	     39.50307506	     84.15201925	      0.00000000	      0.00000000
      3.47000000	     -4.15855065	     -8.25273365	      1.10438152	     -0.32000209	      0.80192729	     -0.97563457	     56.30881237	      1.51147100	     -4.54683245	     14.70758587	      0.25669580	    -17.44671468	      0.00000000	      0.00000000	     50.53338122	     -6.99123359	      0.99028308	     79.20808990	      1.38244196	     22.44197487	      0.00000000	      0.00000000	    -11.42402427	      1.97316928	      7.09294248	     89.92776130	    -14.55119038	     17.52335874	     34.56184578	     79.68197797	      0.00000000	      0.00000000	     89.93128528	    -27.30629463	     21.70292572	     39.60446662	     83.91096478	      0.00000000	      0.00000000
      3.47500000	     -4.20567667	     -8.27678580	      1.13768945	     -0.32025917	      0.80098856	     -0.97564773	     56.37816251	      1.49001822	     -4.66214286	     14.64721498	      0.25564213	    -17.49977691	      0.00000000	      0.00000000	     50.73071982	     -6.96902038	      1.06266496	     79.40704285	      1.38591435	     22.48762813	      0.00000000	      0.00000000	    -11.46174740	      1.99885700	      7.00086173	     89.92773983	    -14.52279981	     17.64137302	     34.62460495	     78.01156121	      0.00000000	      0.00000000	     89.93123979	    -27.32123980	     21.52662404	     39.62312625	     84.21256366	      0.00000000	      0.00000000
      3.48000000	     -4.17192431	     -8.18071588	      1.12137355	     -0.32037973	      0.80025064	     -0.97564886	     56.37154643	      1.44989698	     -4.61408806	     14.65403581	      0.25576117	    -17.40502514	      0.00000000	      0.00000000	     50.75520560	     -6.92409317	      0.95756567	     79.54401181	      1.38830491	     22.54166813	      0.00000000	      0.00000000	    -11.58063554	      1.88137816	      7.02498037	     89.92788952	    -14.60450255	     17.43509895	     34.66272648	     79.90910286	      0.00000000	      0.00000000	     89.93138318	    -27.37382762	     21.66289771	     39.77090800	     83.84346184	      0.00000000	      0.00000000
      3.48500000	     -3.98725140	     -7.90764651	      0.99035957	     -0.32018229	      0.79990890	     -0.97586330	     56.19228878	      1.39804564	     -4.35315326	     14.59741150	      0.25477289	    -17.38625708	      0.00000000	      0.00000000	     50.47544568	     -6.79538648	      0.61215909	     79.60466524	      1.38936351	     22.71741339	      0.00000000	      0.00000000	    -11.85188440	      1.57872809	      7.15257786	     89.92804828	    -14.56859525	     17.32477422	     34.70299204	     79.57972560	      0.00000000	      0.00000000	     89.93137538	    -27.31447137	     21.62317165	     39.76126738	     84.05494697	      0.00000000	      0.00000000
      3.49000000	     -4.21836333	     -8.19360565	      1.11539533	     -0.32074962	      0.79851066	     -0.97568002	     56.42667118	      1.48864117	     -4.66789842	     14.42528307	      0.25176869	    -17.55019329	      0.00000000	      0.00000000	     51.03879404	     -6.88067998	      1.04168427	     79.90694502	      1.39463929	     22.63328445	      0.00000000	      0.00000000	    -11.68809434	      1.86347045	      7.14885706	     89.92822765	    -14.79974064	     17.60737748	     34.82394716	     79.23957372	      0.00000000	      0.00000000	     89.93202517	    -27.09702711	     21.41272291	     39.74031835	     83.65467539	      0.00000000	      0.00000000
      3.49500000	     -4.30424582	     -8.18624949	      1.08008376	     -0.32092760	      0.79750510	     -0.97559187	     56.55317796	      1.50402448	     -4.70281749	     14.38046550	      0.25098647	    -17.61405706	      0.00000000	      0.00000000	     51.24499293	     -6.91557033	      0.97403809	     80.09805305	      1.39797475	     22.77462736	      0.00000000	      0.00000000	    -11.67294800	      1.84770272	      7.08809372	     89.92868784	    -14.64735696	     17.18714945	     34.74230032	     80.57138302	      0.00000000	      0.00000000	     89.93193393	    -27.25499606	     21.52669896	     39.86591283	     83.70428928	      0.00000000	      0.00000000
      3.50000000	     -4.30226807	     -8.09597616	      1.07616904	     -0.32120110	      0.79661507	     -0.97561151	     56.75304068	      1.42919269	     -4.80396025	     14.72237498	      0.25695392	    -17.19986329	      0.00000000	      0.00000000	     51.34624304	     -6.81466686	      0.96401588	     80.23645631	      1.40039034	     22.61681941	      0.00000000	      0.00000000	    -11.72158148	      1.75174100	      7.01606702	     89.92920121	    -14.40490519	     17.00268205	     34.43807994	     77.21762674	      0.00000000	      0.00000000	     89.93234375	    -27.11830668	     21.50178518	     39.63324693	     80.62663388	      0.00000000	      0.00000000
      3.50500000	     -4.32199294	     -8.11356333	      1.03813335	     -0.32143215	      0.79582313	     -0.97554823	     56.62792309	      1.50329458	     -4.72858366	     14.24984995	      0.24870680	    -17.75200640	      0.00000000	      0.00000000	     51.46911893	     -6.86660690	      0.92849762	     80.41588306	      1.40352193	     22.89972596	      0.00000000	      0.00000000	    -11.83102217	      1.77030376	      7.04376164	     89.92867601	    -14.57586284	     17.08658544	     34.78487740	     79.49012945	      0.00000000	      0.00000000	     89.93217429	    -27.35920541	     21.43773613	     39.97222762	     83.85100743	      0.00000000	      0.00000000
      3.51000000	     -4.34981686	     -8.11830929	      1.04160598	     -0.32157624	      0.79497539	     -0.97559457	     56.65180523	      1.51589959	     -4.80557275	     14.14828335	      0.24693413	    -17.68922356	      0.00000000	      0.00000000	     51.60907859	     -6.85560439	      0.93390134	     80.60439276	      1.40681205	     22.97615809	      0.00000000	      0.00000000	    -11.87353538	      1.76075801	      7.05334454	     89.92896835	    -14.61405276	     17.22910244	     34.84296255	     78.85955974	      0.00000000	      0.00000000	     89.93248028	    -27.29370287	     21.40189214	     39.97132830	     84.07160191	      0.00000000	      0.00000000
      3.51500000	     -4.41837226	     -8.08522348	      1.02796077	     -0.32178287	      0.79391777	     -0.97567121	     56.74316048	      1.50537323	     -4.74563408	     14.06868325	      0.24554484	    -17.68714944	      0.00000000	      0.00000000	     51.84574057	     -6.78501188	      0.97736780	     80.82131912	      1.41059812	     22.93172538	      0.00000000	      0.00000000	    -11.86520185	      1.73619166	      7.05149295	     89.92896888	    -14.61859606	     17.20585300	     34.86115651	     78.32074408	      0.00000000	      0.00000000	     89.93260213	    -27.31346016	     21.34167653	     40.00883342	     84.14403191	      0.00000000	      0.00000000
